<?xml version="1.0" encoding="UTF-8" standalone="no"?>
<!-- Created with Inkscape (http://www.inkscape.org/) -->

<svg
   width="210mm"
   height="297mm"
   viewBox="0 0 210 297"
   version="1.1"
   id="svg5"
   inkscape:version="1.1.2 (b8e25be833, 2022-02-05)"
   sodipodi:docname="logo-dark.svg"
   xmlns:inkscape="http://www.inkscape.org/namespaces/inkscape"
   xmlns:sodipodi="http://sodipodi.sourceforge.net/DTD/sodipodi-0.dtd"
   xmlns="http://www.w3.org/2000/svg"
   xmlns:svg="http://www.w3.org/2000/svg">
  <sodipodi:namedview
     id="namedview7"
     pagecolor="#ffffff"
     bordercolor="#666666"
     borderopacity="1.0"
     inkscape:pageshadow="2"
     inkscape:pageopacity="0.0"
     inkscape:pagecheckerboard="0"
     inkscape:document-units="mm"
     showgrid="false"
     inkscape:zoom="1.3077309"
     inkscape:cx="417.13475"
     inkscape:cy="593.39425"
     inkscape:window-width="1366"
     inkscape:window-height="705"
     inkscape:window-x="-8"
     inkscape:window-y="-8"
     inkscape:window-maximized="1"
     inkscape:current-layer="layer2" />
  <defs
     id="defs2">
    <style
       id="style9">
      .st0 {
        fill: #6e6f72;
      }

      .st1 {
        fill: #f1f2f2;
      }

      .st1, .st2 {
        display: none;
      }

      .st3 {
        fill: #808285;
      }

      .st4 {
        fill: #002e6d;
      }

      .st5 {
        fill: #76777a;
      }

      .st6 {
        fill: #ae841f;
      }
    </style>
  </defs>
  <g
     inkscape:label="Layer 1"
     inkscape:groupmode="layer"
     id="layer1">
    <rect
       class="st1"
       x="-148.6772"
       y="-2.7032967"
       width="385.83313"
       height="385.83313"
       id="rect13"
       style="stroke-width:0.716363" />
    <g
       class="st2"
       id="g145"
       transform="matrix(0.71636307,0,0,0.71636307,-158.84956,-12.875652)">
      <g
         id="g73">
        <g
           id="g29">
          <path
             class="st4"
             d="m 290,268.9 c 3.4,-1.3 5.2,-3 6.4,-5.1 2.3,-3.9 3.2,-11.4 -0.8,-13.9 -0.7,-0.4 -2.3,5.5 -1.8,5.8 2.5,1.6 2.5,4.1 2.1,4.8 -2.3,4.5 -13.3,5.2 -18,4.2 -1.7,-0.3 -2.7,-0.7 -2.8,-2.2 0,-1.1 1.8,-3.2 4.3,-2.3 6.6,2.2 8.8,10.9 8.8,11 0,2.5 -3.2,6.2 -9.1,10.5 -4.1,3 -9.5,5.7 -15,7.1 -7.5,1.8 -13.5,-2.4 -15,-9.7 -0.9,-4.5 -0.8,-10.5 -0.4,-13.2 -2.1,6.3 -2.8,26.2 11.7,29.1 12.8,2.5 26.7,-13.8 28.2,-17.6 0.8,-1.9 1.3,-4.8 1.4,-5.7 0.8,-6.6 -4.8,-16.6 -9.8,-17.1 -3.8,-0.4 -7.7,3.9 -7.7,9.3 0,3.6 1.4,5.5 4.1,6 3.2,0.6 5.6,0.7 11.5,-0.5 l 2,-0.6 z"
             id="path15" />
          <path
             class="st4"
             d="m 265.8,308.9 c 6.6,-3.7 9.6,-6.5 12.5,-7 0,0 -0.3,0.4 -0.5,1.1 -2.5,6 0.4,7.9 3.1,7.9 5.7,0 10.5,-4.2 12.5,-6.3 0.2,0.7 0.7,2.4 2.3,2.6 2.9,0.4 5.7,-1.2 7.5,-5.6 1.6,-3.7 1.7,-10.5 -1.9,-12.4 -0.6,-0.3 -1.4,5.2 -1,5.4 2.2,1.2 2.4,3.4 2.2,4.1 -0.8,2.3 -3.8,3.6 -5.3,3.4 -1.3,-0.2 -2.2,-1.5 -1.9,-2.4 0.3,-0.8 0.5,-4.6 0,-3.5 -1,2.3 -8.2,10.6 -14.8,9.1 -2.1,-0.4 -1.3,-3.5 -0.6,-4.1 0.4,-0.3 0.5,-1.4 0.7,-3 0.2,-2 0,-2.7 -0.6,-2.8 -2.7,-0.3 -8.2,4.4 -14.9,8.1 0,0 -2.2,1.6 -5.2,2.4 -5.2,1.3 -10.2,-0.8 -11.8,-6.6 -0.7,-2.8 -1.1,-7.1 0,-11.1 -0.7,1.5 -2.1,6.8 -1.6,12.2 0.6,7.4 8.2,14.5 19.4,8.3 z"
             id="path17" />
          <path
             class="st4"
             d="m 281.8,242.9 c 0.8,-0.5 1,-0.8 0.7,-1 -1.5,-1.2 -3.8,-2.9 -4.3,-3 -0.3,0 -0.9,0.4 -1.6,0.9 -1.2,0.9 -1.2,1.1 -1.1,1.4 0,0.2 1.1,0.9 2,1.5 1,0.7 1.9,1.3 2.2,1.3 0.3,0 1.4,-0.6 2.1,-1.1 z"
             id="path19" />
          <path
             class="st4"
             d="m 283.3,247.8 c 0.8,-0.5 1,-0.8 0.7,-1 -1.5,-1.2 -3.8,-2.9 -4.3,-3 -0.3,0 -0.9,0.4 -1.6,0.9 -1.2,0.9 -1.2,1.1 -1.1,1.4 0.1,0.2 1.1,0.9 2,1.5 1,0.7 1.9,1.3 2.2,1.3 0.3,0 1.4,-0.6 2,-1 z"
             id="path21" />
          <path
             class="st4"
             d="m 299.4,275.1 c 0.8,-0.5 1,-0.8 0.7,-1 -1.5,-1.2 -3.8,-2.9 -4.3,-3 -0.3,0 -0.9,0.4 -1.6,0.9 -1.2,0.9 -1.2,1.1 -1.1,1.4 0,0.2 1.1,0.9 2,1.5 1,0.7 1.9,1.3 2.2,1.3 0.3,0 1.4,-0.6 2.1,-1 z"
             id="path23" />
          <path
             class="st4"
             d="m 300.9,280 c 0.8,-0.5 1,-0.8 0.7,-1 -1.5,-1.2 -3.8,-2.9 -4.3,-3 -0.3,0 -0.9,0.4 -1.6,0.9 -1.2,0.9 -1.2,1.1 -1.1,1.4 0,0.2 1.1,0.9 2,1.5 1,0.7 1.9,1.3 2.2,1.3 0.3,0 1.4,-0.6 2.1,-1.1 z"
             id="path25" />
          <path
             class="st4"
             d="m 276.8,215.2 c 4.1,19.3 -21.9,28.7 -26.4,45.9 1.1,-16.9 27.8,-27.1 26.4,-45.9 z"
             id="path27" />
        </g>
        <g
           id="g41">
          <path
             class="st5"
             d="m 292.7,291.2 c 0.8,-0.6 1.1,-0.9 0.7,-1.2 -1.7,-1.2 -4.5,-3 -5,-3 -0.4,0 -0.9,0.5 -1.8,1.1 -1.3,1.1 -1.3,1.3 -1.1,1.6 0.1,0.2 1.3,0.9 2.4,1.5 1.2,0.7 2.3,1.3 2.5,1.3 0.3,0 1.5,-0.8 2.2,-1.3 z"
             id="path31" />
          <path
             class="st5"
             d="m 312.8,291.9 c 1.2,2.2 1.9,4.5 1.6,7 -0.1,0.9 -0.7,4.6 -1.5,6.4 -1.6,3.7 -16.2,21 -28.9,18.3 -14.4,-3 -13.5,-22.9 -11.3,-29.2 -0.5,2.7 -0.7,8.7 0.2,13.2 1.4,7.3 7.4,11.6 14.9,9.8 5.5,-1.3 11.2,-4.8 15.4,-7.7 6,-4.2 9.4,-8.2 9.5,-10.7 0.1,-4.3 -11.1,-10 -7,-19.1 0,1.5 1,3.2 2.5,5.1 0,0 1.2,1.5 3.7,1.6 2.2,0.1 5.5,-0.9 6.7,-3.3 0.3,-0.7 0.3,-3.3 -2.1,-4.8 -0.5,-0.3 1.2,-6.3 1.8,-5.8 4,2.6 2.9,9.9 0.8,13.9 -2.2,4.2 -5,5 -6,5.2 v 0 z"
             id="path33" />
          <path
             class="st5"
             d="m 312.5,265 c 0.8,-0.5 1,-0.8 0.7,-1 -1.5,-1.2 -3.8,-2.9 -4.3,-3 -0.3,0 -0.9,0.4 -1.6,0.9 -1.2,0.9 -1.2,1.1 -1.1,1.4 0.1,0.2 1.1,0.9 2,1.5 1,0.7 1.9,1.3 2.2,1.3 0.3,0 1.4,-0.6 2.1,-1 z"
             id="path35" />
          <path
             class="st5"
             d="m 314,269.9 c 0.8,-0.5 1,-0.8 0.7,-1 -1.5,-1.2 -3.8,-2.9 -4.3,-3 -0.3,0 -0.9,0.4 -1.6,0.9 -1.2,0.9 -1.2,1.1 -1.1,1.4 0,0.2 1.1,0.9 2,1.5 1,0.7 1.9,1.3 2.2,1.3 0.3,0 1.4,-0.6 2.1,-1 z"
             id="path37" />
          <path
             class="st5"
             d="m 257.4,268.2 c 9.1,3.8 19.2,8.6 17.1,15 4.2,-7.7 -7.6,-12.4 -16.3,-16.4 -9.8,-4.4 -19.4,-7.9 -9.7,-16.3 -11,8.7 -1.5,13.2 8.9,17.6 z"
             id="path39" />
        </g>
        <g
           id="g57">
          <path
             class="st4"
             d="m 234.7,335.1 h -3.9 v -1.4 h 9.5 v 1.4 h -3.9 v 11.4 h -1.7 z"
             id="path43" />
          <path
             class="st4"
             d="m 247,342.5 -1.3,4 H 244 l 4.4,-12.8 h 2 l 4.4,12.8 H 253 l -1.4,-4 h -4.5 z m 4.2,-1.3 -1.3,-3.7 c -0.3,-0.8 -0.5,-1.6 -0.7,-2.3 v 0 c -0.2,0.8 -0.4,1.5 -0.6,2.3 l -1.3,3.7 z"
             id="path45" />
          <path
             class="st4"
             d="m 261.1,346.5 v -12.8 h 1.8 l 4.1,6.5 c 0.9,1.5 1.7,2.8 2.3,4.2 v 0 c -0.2,-1.7 -0.2,-3.3 -0.2,-5.3 v -5.4 h 1.6 v 12.8 H 269 l -4.1,-6.5 c -0.9,-1.4 -1.7,-2.9 -2.4,-4.3 v 0 c 0,1.6 0.1,3.2 0.1,5.3 v 5.5 H 261 Z"
             id="path47" />
          <path
             class="st4"
             d="m 277.9,344.5 c 0.7,0.5 1.8,0.8 3,0.8 1.7,0 2.7,-0.9 2.7,-2.2 0,-1.3 -0.7,-1.9 -2.4,-2.5 -2.1,-0.7 -3.4,-1.8 -3.4,-3.6 0,-1.8 1.7,-3.5 4.1,-3.5 2.4,0 2.3,0.3 2.8,0.6 l -0.5,1.3 c -0.4,-0.2 -1.3,-0.6 -2.4,-0.6 -1.7,0 -2.4,1 -2.4,1.9 0,0.9 0.8,1.8 2.5,2.5 2.2,0.8 3.3,1.9 3.3,3.8 0,1.9 -1.5,3.7 -4.5,3.7 -3,0 -2.6,-0.4 -3.3,-0.8 l 0.4,-1.4 z"
             id="path49" />
          <path
             class="st4"
             d="m 298.7,340.5 h -5 v 4.6 h 5.5 v 1.4 H 292 v -12.8 h 6.9 v 1.4 h -5.3 v 4 h 5 v 1.4 z"
             id="path51" />
          <path
             class="st4"
             d="m 312.6,340.5 h -5 v 4.6 h 5.5 v 1.4 h -7.2 v -12.8 h 6.9 v 1.4 h -5.3 v 4 h 5 v 1.4 z"
             id="path53" />
          <path
             class="st4"
             d="m 330.4,348.4 c -1.7,-0.5 -3.4,-1 -4.9,-1.5 -0.3,0 -0.5,-0.2 -0.8,-0.2 -3,-0.1 -5.6,-2.4 -5.6,-6.5 0,-4.1 2.5,-6.7 6,-6.7 3.5,0 5.7,2.7 5.7,6.5 0,3.8 -1.5,5.4 -3.6,6.1 v 0 c 1.3,0.4 2.7,0.7 3.7,0.9 z m -1.3,-8.3 c 0,-2.6 -1.3,-5.2 -4,-5.2 -2.7,0 -4.2,2.6 -4.1,5.4 0,2.7 1.5,5.2 4.1,5.2 2.6,0 4.1,-2.4 4.1,-5.3 z"
             id="path55" />
        </g>
        <g
           id="g71">
          <path
             class="st4"
             d="m 256.7,352.7 c 0.4,0 1,-0.1 1.5,-0.1 0.8,0 1.4,0.2 1.8,0.5 0.3,0.3 0.5,0.7 0.5,1.2 0,0.8 -0.5,1.3 -1.1,1.6 v 0 c 0.5,0.2 0.8,0.6 0.9,1.3 0.2,0.8 0.3,1.4 0.5,1.7 H 260 c 0,-0.2 -0.2,-0.7 -0.4,-1.5 -0.2,-0.8 -0.5,-1.2 -1.2,-1.2 h -0.7 v 2.6 h -0.8 v -6 z m 0.7,2.8 h 0.8 c 0.8,0 1.4,-0.5 1.4,-1.2 0,-0.7 -0.6,-1.1 -1.4,-1.1 -0.4,0 -0.7,0 -0.8,0 v 2.2 z"
             id="path59" />
          <path
             class="st4"
             d="m 269.6,355.9 h -2.4 v 2.2 h 2.6 v 0.7 h -3.4 v -6.1 h 3.3 v 0.7 h -2.5 v 1.9 h 2.4 v 0.7 z"
             id="path61" />
          <path
             class="st4"
             d="m 276.7,356.8 -0.6,1.9 h -0.8 l 2.1,-6.1 h 1 l 2.1,6.1 h -0.8 l -0.7,-1.9 h -2.2 z m 2,-0.6 -0.6,-1.8 c -0.1,-0.4 -0.2,-0.8 -0.3,-1.1 v 0 c 0,0.4 -0.2,0.7 -0.3,1.1 l -0.6,1.8 z"
             id="path63" />
          <path
             class="st4"
             d="m 286.2,352.6 h 0.8 v 5.4 h 2.6 v 0.7 h -3.4 z"
             id="path65" />
          <path
             class="st4"
             d="m 295.7,353.3 h -1.9 v -0.7 h 4.5 v 0.7 h -1.9 v 5.4 h -0.8 v -5.4 z"
             id="path67" />
          <path
             class="st4"
             d="m 305.5,358.7 v -2.6 l -1.9,-3.5 h 0.9 l 0.9,1.7 c 0.2,0.5 0.4,0.8 0.6,1.3 v 0 c 0.2,-0.4 0.4,-0.8 0.6,-1.3 l 0.9,-1.7 h 0.9 l -2,3.5 v 2.6 h -0.8 z"
             id="path69" />
        </g>
      </g>
      <g
         id="g143">
        <g
           id="g101">
          <path
             class="st4"
             d="m 202,463.2 c 0,2.3 -1.8,4.1 -4.1,4.1 -2.3,0 -4.1,-1.8 -4.1,-4.1 0,-2.3 1.8,-4.1 4.1,-4.1 2.3,0 4.1,1.8 4.1,4.1 z"
             id="path75" />
          <g
             id="g99">
            <path
               class="st3"
               d="m 206.7,459.7 c 0.4,0 0.9,-0.1 1.4,-0.1 0.5,0 1.4,0.2 1.8,0.6 0.3,0.3 0.5,0.8 0.5,1.3 0,0.5 -0.2,1 -0.5,1.3 -0.4,0.5 -1.2,0.8 -2,0.8 -0.8,0 -0.6,0 -0.8,0 v 2.9 h -0.5 v -6.7 z m 0.5,3.3 c 0.2,0 0.5,0 0.9,0 1.2,0 1.9,-0.6 1.9,-1.6 0,-1 -0.8,-1.5 -1.8,-1.5 -1,0 -0.8,0 -0.9,0 v 3 z"
               id="path77" />
            <path
               class="st3"
               d="m 214.4,465.2 c 0,0.4 0,0.8 0,1.1 H 214 v -0.7 0 c -0.2,0.4 -0.8,0.8 -1.5,0.8 -0.7,0 -1.4,-0.7 -1.4,-1.3 0,-1.1 1,-1.8 2.9,-1.8 v 0 c 0,-0.6 0,-1.5 -1.2,-1.5 -0.4,0 -0.9,0.1 -1.2,0.4 l -0.2,-0.3 c 0.4,-0.3 1,-0.4 1.4,-0.4 1.4,0 1.7,1 1.7,1.9 v 1.9 z m -0.5,-1.4 c -1,0 -2.4,0.1 -2.4,1.3 0,1.2 0.5,1 1,1 0.8,0 1.3,-0.5 1.4,-1 0,0 0,-0.2 0,-0.3 z"
               id="path79" />
            <path
               class="st3"
               d="m 216,462.7 c 0,-0.4 0,-0.8 0,-1.1 h 0.4 v 0.9 0 c 0.3,-0.5 0.9,-1 1.6,-1 0.7,0 1.7,0.2 1.7,2 v 2.9 h -0.5 v -2.8 c 0,-0.9 -0.3,-1.7 -1.3,-1.7 -1,0 -1.2,0.5 -1.4,1.1 0,0.1 0,0.3 0,0.4 v 3 H 216 v -3.6 z"
               id="path81" />
            <path
               class="st3"
               d="m 222,460.5 v 1.1 h 1.4 V 462 H 222 v 3.1 c 0,0.6 0.2,1 0.7,1 0.5,0 0.4,0 0.5,0 v 0.4 c 0,0 -0.3,0.1 -0.6,0.1 -0.3,0 -0.6,-0.1 -0.8,-0.3 -0.2,-0.2 -0.3,-0.7 -0.3,-1.1 v -3 h -0.8 v -0.4 h 0.8 v -0.9 l 0.5,-0.2 z"
               id="path83" />
            <path
               class="st3"
               d="m 226.1,466.5 c -1.2,0 -2.2,-1 -2.2,-2.5 0,-1.5 1.1,-2.5 2.3,-2.5 1.2,0 2.2,1 2.2,2.5 0,1.5 -1.2,2.5 -2.3,2.5 z m 0.1,-0.4 c 1,0 1.8,-0.9 1.8,-2.1 0,-1.2 -0.5,-2.1 -1.8,-2.1 -1.3,0 -1.8,1.1 -1.8,2.1 0,1 0.8,2.1 1.7,2.1 v 0 z"
               id="path85" />
            <path
               class="st3"
               d="m 229.7,462.7 c 0,-0.4 0,-0.8 0,-1.1 h 0.5 v 0.9 0 c 0.3,-0.5 0.9,-1 1.6,-1 0.7,0 1.7,0.2 1.7,2 v 2.9 H 233 v -2.8 c 0,-0.9 -0.3,-1.7 -1.3,-1.7 -1,0 -1.2,0.5 -1.4,1.1 0,0.1 0,0.3 0,0.4 v 3 h -0.5 v -3.6 z"
               id="path87" />
            <path
               class="st3"
               d="m 235.1,463.9 c 0,1.5 0.8,2.1 1.8,2.1 1,0 1.1,-0.1 1.3,-0.3 v 0.4 c 0,0 -0.5,0.3 -1.4,0.3 -1.4,0 -2.2,-1 -2.2,-2.4 0,-1.4 0.9,-2.6 2.2,-2.6 1.3,0 1.9,1.5 1.9,2.2 0,0.7 0,0.2 0,0.3 h -3.5 z m 3.1,-0.4 c 0,-0.7 -0.3,-1.7 -1.4,-1.7 -1.1,0 -1.5,0.9 -1.6,1.7 z"
               id="path89" />
            <path
               class="st3"
               d="M 241.7,466.3 V 466 l 0.6,-0.6 c 1.8,-1.8 2.6,-2.7 2.6,-3.8 0,-1.1 -0.3,-1.5 -1.4,-1.5 -1.1,0 -1.1,0.3 -1.4,0.6 l -0.2,-0.3 c 0.4,-0.4 1,-0.7 1.7,-0.7 1.3,0 1.8,1 1.8,1.8 0,1.3 -0.9,2.3 -2.6,3.9 l -0.5,0.5 v 0 c 0,0 3.2,0 3.2,0 v 0.4 h -3.9 z"
               id="path91" />
            <path
               class="st3"
               d="m 247.1,466 c 0.2,0 0.4,0 0.7,0 0.5,0 1,-0.3 1.4,-0.8 0.4,-0.5 0.8,-1.1 0.9,-2.1 v 0 c -0.4,0.5 -1,0.8 -1.7,0.8 -1.2,0 -1.8,-0.9 -1.8,-2 0,-1.1 0.8,-2.3 2.1,-2.3 1.3,0 2,0.9 2,2.7 0,1.8 -0.5,2.5 -1.1,3.1 -0.4,0.4 -1,0.7 -1.5,0.8 -0.3,0 -0.7,0 -0.9,0 v -0.4 z m 1.5,-5.9 c -0.9,0 -1.5,0.8 -1.5,1.9 0,1.1 0.6,1.6 1.5,1.6 0.9,0 1.3,-0.4 1.5,-0.8 0,0 0,-0.2 0,-0.3 0,-1.4 -0.5,-2.3 -1.6,-2.3 v 0 z"
               id="path93" />
            <path
               class="st3"
               d="m 254.2,466.3 v -1.9 h -3.1 v -0.3 l 3.2,-4.3 h 0.4 v 4.2 h 1 v 0.4 h -1 v 1.9 z m 0,-2.3 v -2.6 c 0,-0.3 0,-0.6 0,-0.9 v 0 c -0.2,0.4 -0.3,0.6 -0.5,0.8 l -2,2.7 v 0 c 0,0 2.5,0 2.5,0 z"
               id="path95" />
            <path
               class="st3"
               d="m 263.5,466.1 c -0.3,0.2 -1,0.3 -1.8,0.3 -1.6,0 -3.2,-1 -3.2,-3.4 0,-2.4 1.3,-3.5 3.4,-3.5 2.1,0 1.4,0.2 1.6,0.3 l -0.2,0.4 c -0.3,-0.2 -0.8,-0.3 -1.4,-0.3 -1.8,0 -2.9,1.2 -2.9,3.1 0,1.9 1,3 2.8,3 1.8,0 1.1,-0.1 1.5,-0.3 v 0.4 z"
               id="path97" />
          </g>
        </g>
        <g
           id="g141">
          <path
             class="st5"
             d="m 280.3,462 c 0,2.3 -1.8,4.1 -4.1,4.1 -2.3,0 -4.1,-1.8 -4.1,-4.1 0,-2.3 1.8,-4.1 4.1,-4.1 2.3,0 4.1,1.8 4.1,4.1 z"
             id="path103" />
          <g
             id="g139">
            <path
               class="st3"
               d="m 285,459.5 c 0.4,0 0.9,-0.1 1.4,-0.1 0.5,0 1.4,0.2 1.8,0.6 0.3,0.3 0.5,0.8 0.5,1.3 0,0.5 -0.2,1 -0.5,1.3 -0.4,0.5 -1.1,0.7 -2,0.7 -0.9,0 -0.6,0 -0.8,0 v 2.9 h -0.5 v -6.7 z m 0.5,3.4 c 0.2,0 0.5,0 0.9,0 1.2,0 1.9,-0.6 1.9,-1.7 0,-1.1 -0.8,-1.5 -1.8,-1.5 -1,0 -0.8,0 -0.9,0 v 3 z"
               id="path105" />
            <path
               class="st3"
               d="m 292.7,465 c 0,0.4 0,0.8 0,1.1 h -0.4 v -0.7 0 c -0.2,0.4 -0.8,0.8 -1.5,0.8 -0.7,0 -1.4,-0.7 -1.4,-1.3 0,-1.1 1,-1.8 2.9,-1.8 v 0 c 0,-0.6 0,-1.5 -1.2,-1.5 -0.4,0 -0.9,0.1 -1.2,0.4 l -0.2,-0.3 c 0.4,-0.3 1,-0.4 1.4,-0.4 1.4,0 1.7,1 1.7,1.9 v 1.9 z m -0.5,-1.4 c -1.1,0 -2.4,0.1 -2.4,1.3 0,1.2 0.5,1 1,1 0.8,0 1.3,-0.5 1.4,-1 0,-0.1 0,-0.2 0,-0.3 z"
               id="path107" />
            <path
               class="st3"
               d="m 294.3,462.5 c 0,-0.4 0,-0.8 0,-1.1 h 0.5 v 0.9 0 c 0.3,-0.5 0.9,-1 1.6,-1 0.7,0 1.7,0.2 1.7,2 v 2.9 h -0.5 v -2.8 c 0,-0.9 -0.3,-1.7 -1.3,-1.7 -1,0 -1.2,0.5 -1.4,1.1 0,0.1 0,0.3 0,0.4 v 3 h -0.5 v -3.6 z"
               id="path109" />
            <path
               class="st3"
               d="m 300.3,460.3 v 1.1 h 1.4 v 0.4 h -1.4 v 3.1 c 0,0.6 0.2,1 0.7,1 0.5,0 0.4,0 0.6,0 v 0.4 c -0.1,0 -0.3,0.1 -0.6,0.1 -0.3,0 -0.6,-0.1 -0.8,-0.3 -0.2,-0.2 -0.3,-0.7 -0.3,-1.2 v -3 h -0.8 v -0.4 h 0.8 v -0.9 l 0.5,-0.2 z"
               id="path111" />
            <path
               class="st3"
               d="m 304.5,466.3 c -1.2,0 -2.2,-1 -2.2,-2.5 0,-1.5 1.1,-2.5 2.3,-2.5 1.2,0 2.2,1 2.2,2.5 0,1.5 -1.2,2.5 -2.3,2.5 z m 0,-0.4 c 1,0 1.8,-0.9 1.8,-2.1 0,-1.2 -0.5,-2.1 -1.8,-2.1 -1.3,0 -1.8,1.1 -1.8,2.1 0,1 0.8,2.1 1.7,2.1 v 0 z"
               id="path113" />
            <path
               class="st3"
               d="m 308,462.5 c 0,-0.4 0,-0.8 0,-1.1 h 0.4 v 0.9 0 c 0.3,-0.5 0.9,-1 1.6,-1 0.7,0 1.7,0.2 1.7,2 v 2.9 h -0.5 v -2.8 c 0,-0.9 -0.3,-1.7 -1.3,-1.7 -1,0 -1.2,0.5 -1.4,1.1 0,0.1 0,0.3 0,0.4 v 3 H 308 v -3.6 z"
               id="path115" />
            <path
               class="st3"
               d="m 313.4,463.7 c 0,1.5 0.8,2.1 1.8,2.1 1,0 1.1,-0.1 1.3,-0.3 v 0.4 c 0,0 -0.6,0.3 -1.4,0.3 -1.4,0 -2.2,-1 -2.2,-2.4 0,-1.4 0.9,-2.6 2.2,-2.6 1.3,0 1.9,1.5 1.9,2.2 0,0.7 0,0.2 0,0.3 h -3.5 z m 3.1,-0.4 c 0,-0.7 -0.3,-1.7 -1.4,-1.7 -1.1,0 -1.5,0.9 -1.6,1.7 z"
               id="path117" />
            <path
               class="st3"
               d="m 325,465.9 c -0.3,0.2 -1,0.3 -1.8,0.3 -1.6,0 -3.2,-1 -3.2,-3.4 0,-2.4 1.3,-3.5 3.4,-3.5 2.1,0 1.4,0.2 1.6,0.3 v 0.4 c -0.5,-0.2 -1,-0.3 -1.5,-0.3 -1.8,0 -2.9,1.2 -2.9,3.1 0,1.9 1,3 2.8,3 1.8,0 1.1,-0.1 1.5,-0.3 v 0.4 z"
               id="path119" />
            <path
               class="st3"
               d="m 327.8,466.3 c -1.2,0 -2.2,-1 -2.2,-2.5 0,-1.5 1.1,-2.5 2.3,-2.5 1.2,0 2.2,1 2.2,2.5 0,1.5 -1.2,2.5 -2.3,2.5 z m 0.1,-0.4 c 1,0 1.8,-0.9 1.8,-2.1 0,-1.2 -0.5,-2.1 -1.8,-2.1 -1.3,0 -1.8,1.1 -1.8,2.1 0,1 0.8,2.1 1.7,2.1 v 0 z"
               id="path121" />
            <path
               class="st3"
               d="m 333.1,466.3 c -1.2,0 -2.2,-1 -2.2,-2.5 0,-1.5 1.1,-2.5 2.3,-2.5 1.2,0 2.2,1 2.2,2.5 0,1.5 -1.2,2.5 -2.3,2.5 z m 0.1,-0.4 c 1,0 1.8,-0.9 1.8,-2.1 0,-1.2 -0.5,-2.1 -1.8,-2.1 -1.3,0 -1.8,1.1 -1.8,2.1 0,1 0.8,2.1 1.7,2.1 v 0 z"
               id="path123" />
            <path
               class="st3"
               d="m 336.7,459.1 h 0.5 v 7.1 h -0.5 z"
               id="path125" />
            <path
               class="st3"
               d="m 345.8,465.9 c -0.3,0.1 -1,0.4 -2,0.4 -1,0 -1.7,-0.2 -2.4,-0.9 -0.6,-0.5 -0.9,-1.4 -0.9,-2.5 0,-1.9 1.2,-3.5 3.5,-3.5 2.3,0 1.3,0.2 1.6,0.3 l -0.2,0.4 c -0.3,-0.2 -0.8,-0.3 -1.4,-0.3 -1.8,0 -3,1.2 -3,3 0,1.8 1.1,3 2.9,3 1.8,0 1.2,0 1.4,-0.2 v -2.4 h -1.6 v -0.4 h 2 v 3 z"
               id="path127" />
            <path
               class="st3"
               d="m 347.2,462.8 c 0,-0.5 0,-1 0,-1.4 h 0.4 v 1 0 c 0.2,-0.6 0.7,-1.1 1.4,-1.1 0.7,0 0.1,0 0.2,0 v 0.4 c 0,0 -0.1,0 -0.2,0 -0.7,0 -1.1,0.6 -1.3,1.3 0,0.1 0,0.3 0,0.5 v 2.6 h -0.5 v -3.4 z"
               id="path129" />
            <path
               class="st3"
               d="m 353.2,465 c 0,0.4 0,0.8 0,1.1 h -0.4 v -0.7 0 c -0.2,0.4 -0.8,0.8 -1.5,0.8 -0.7,0 -1.4,-0.7 -1.4,-1.3 0,-1.1 1,-1.8 2.9,-1.8 v 0 c 0,-0.6 0,-1.5 -1.2,-1.5 -0.4,0 -0.9,0.1 -1.2,0.4 l -0.2,-0.3 c 0.4,-0.3 1,-0.4 1.4,-0.4 1.4,0 1.7,1 1.7,1.9 v 1.9 z m -0.5,-1.4 c -1.1,0 -2.4,0.1 -2.4,1.3 0,1.2 0.5,1 1,1 0.8,0 1.3,-0.5 1.4,-1 0,-0.1 0,-0.2 0,-0.3 z"
               id="path131" />
            <path
               class="st3"
               d="m 354.5,461.4 1.3,3.1 c 0.1,0.3 0.3,0.7 0.3,1 v 0 c 0,-0.3 0.2,-0.7 0.4,-1.1 l 1.2,-3.1 h 0.5 l -1.4,3.6 c -0.6,1.5 -1,2.4 -1.6,2.9 -0.4,0.3 -0.7,0.5 -0.8,0.5 v -0.4 c 0,0 0.4,-0.3 0.7,-0.5 0.2,-0.2 0.6,-0.6 0.8,-1.2 0,0 0,-0.2 0,-0.2 0,0 0,-0.1 0,-0.2 l -1.8,-4.4 h 0.5 z"
               id="path133" />
            <path
               class="st3"
               d="m 361.4,465.8 c 0.2,0 0.4,0 0.7,0 0.5,0 1,-0.3 1.4,-0.8 0.4,-0.5 0.8,-1.1 0.9,-2.1 v 0 c -0.4,0.5 -1,0.8 -1.7,0.8 -1.2,0 -1.8,-0.9 -1.8,-2 0,-1.1 0.8,-2.3 2.1,-2.3 1.3,0 2,0.9 2,2.7 0,1.8 -0.5,2.5 -1.1,3.1 -0.4,0.4 -1,0.7 -1.5,0.8 -0.3,0 -0.7,0.1 -0.9,0 v -0.4 z m 1.5,-5.8 c -0.9,0 -1.5,0.8 -1.5,1.9 0,1.1 0.6,1.6 1.5,1.6 0.9,0 1.3,-0.4 1.5,-0.8 0,0 0,-0.2 0,-0.3 0,-1.4 -0.5,-2.3 -1.6,-2.3 v 0 z"
               id="path135" />
            <path
               class="st3"
               d="m 372.9,465.9 c -0.3,0.2 -1,0.3 -1.8,0.3 -1.6,0 -3.2,-1 -3.2,-3.4 0,-2.4 1.3,-3.5 3.4,-3.5 2.1,0 1.4,0.2 1.6,0.3 v 0.4 c -0.5,-0.2 -1,-0.3 -1.5,-0.3 -1.8,0 -2.9,1.2 -2.9,3.1 0,1.9 1,3 2.8,3 1.8,0 1.1,-0.1 1.5,-0.3 v 0.4 z"
               id="path137" />
          </g>
        </g>
      </g>
    </g>
    <g
       inkscape:groupmode="layer"
       id="layer2"
       inkscape:label="Layer 2">
      <rect
         style="fill:#ffffff;fill-opacity:0;stroke-width:0.264583"
         id="rect3399"
         width="113.30636"
         height="132.19075"
         x="30.329479"
         y="76.682083" />
    </g>
    <path
       class="st6"
       d="m 85.390116,158.39965 c 0.573091,-0.42982 0.788,-0.71636 0.501454,-0.85963 -1.217817,-0.85964 -3.223633,-2.14909 -3.581815,-2.22073 -0.286545,0 -0.716363,0.35818 -1.289454,0.788 -0.931272,0.788 -0.931272,0.93127 -0.787999,1.14618 0.07164,0.14327 0.931272,0.64473 1.719271,1.07455 0.859636,0.50145 1.647636,0.93127 1.790908,0.93127 0.214909,0 1.074545,-0.57309 1.575999,-0.93127"
       id="path147"
       style="stroke-width:0.716363" />
    <path
       class="st6"
       d="m 99.789014,158.82947 c 0.859636,1.576 1.361086,3.22363 1.146176,5.01454 -0.0716,0.64473 -0.50145,3.29527 -1.07454,4.58472 -1.146181,2.65055 -11.605082,15.04363 -20.774529,13.10945 -10.315628,-2.14909 -9.670901,-16.47635 -8.094902,-20.9178 -0.358182,1.93418 -0.501455,6.23236 0.143272,9.45599 1.002908,5.22945 5.301087,8.30981 10.67381,7.09199 4.011633,-0.93127 8.094903,-3.43854 11.031991,-5.51599 4.298179,-3.00873 6.733813,-5.87418 6.805449,-7.66509 0.07164,-3.08036 -7.95163,-7.16363 -5.014541,-13.68253 0,1.07454 0.716363,2.29236 1.790907,3.65345 0,0 0.859636,1.07455 2.650544,1.14618 1.575999,0.0716 3.939999,-0.64473 4.799629,-2.364 0.21491,-0.50145 0.21491,-2.36399 -1.50436,-3.43854 -0.35818,-0.21491 0.85964,-4.51309 1.28945,-4.22654 2.86546,1.86254 2.07746,7.09199 0.57309,10.02908 -1.57599,3.00873 -3.65345,3.58182 -4.298173,3.72509 v 0 z"
       id="path149"
       style="stroke-width:0.716363" />
    <path
       class="st6"
       d="m 99.574105,139.5593 c 0.573095,-0.35818 0.716365,-0.57309 0.501455,-0.71636 -1.074545,-0.85964 -2.722181,-2.07745 -3.080362,-2.14909 -0.214909,0 -0.644727,0.28655 -1.146181,0.64473 -0.859636,0.64472 -0.859636,0.788 -0.787999,1.00291 0.07164,0.14327 0.787999,0.64472 1.432726,1.07454 0.716363,0.50145 1.36109,0.93127 1.575999,0.93127 0.214908,0 1.002908,-0.42982 1.504362,-0.71636"
       id="path151"
       style="stroke-width:0.716363" />
    <path
       class="st6"
       d="m 100.64865,143.06948 c 0.57309,-0.35818 0.71636,-0.57309 0.50145,-0.71636 -1.07454,-0.85964 -2.722176,-2.07745 -3.080357,-2.14909 -0.214909,0 -0.644727,0.28654 -1.146181,0.64473 -0.859636,0.64472 -0.859636,0.788 -0.788,1.0029 0,0.14328 0.788,0.64473 1.432726,1.07455 0.716363,0.50145 1.36109,0.93127 1.575999,0.93127 0.214909,0 1.002913,-0.42982 1.504363,-0.788"
       id="path153"
       style="stroke-width:0.716363" />
    <path
       class="st6"
       d="m 60.030864,141.85166 c 6.518903,2.72218 13.75417,6.16073 12.249808,10.74545 3.008725,-5.51599 -5.444359,-8.8829 -11.748354,-11.74835 -7.020358,-3.152 -13.897444,-5.65927 -6.948722,-11.67672 -7.879994,6.23236 -1.074545,9.45599 6.375631,12.60799"
       id="path155"
       style="stroke-width:0.716363" />
    <path
       class="st4"
       d="m 83.455936,142.35312 c 2.435634,-0.93127 3.725088,-2.14909 4.65636,-3.65345 1.647635,-2.79382 2.292362,-8.16654 -0.573091,-10.02909 -0.501454,-0.28654 -1.647635,3.94 -1.289453,4.22655 1.790908,1.14618 1.790908,3.00872 1.504362,3.43854 -1.647635,3.22363 -9.527628,3.72509 -12.894535,3.00872 -1.217817,-0.2149 -1.93418,-0.50145 -2.077453,-1.57599 0,-0.788 1.289454,-2.29237 3.080361,-1.64764 4.727997,1.576 6.303995,7.80836 6.303995,7.87999 0,1.86255 -2.292361,4.44146 -6.518904,7.52182 -2.937088,2.14909 -6.805449,4.08327 -10.817082,5.08617 -5.372723,1.28946 -9.670901,-1.71927 -10.817082,-6.94872 -0.644727,-3.22363 -0.573091,-7.52181 -0.286545,-9.45599 -1.504363,4.51309 -2.005817,18.76871 8.381447,20.84617 9.169448,1.7909 19.126894,-9.88582 20.273075,-12.60799 0.573091,-1.36109 0.931272,-3.43855 1.002909,-4.15491 0.57309,-4.728 -3.438543,-11.89163 -7.020358,-12.24981 -2.72218,-0.28654 -5.515996,2.79382 -5.515996,6.66218 0,2.5789 1.002908,3.93999 2.937088,4.29818 2.292362,0.42981 4.011634,0.50145 8.238176,-0.35819 l 1.432726,-0.42981 z"
       id="path157"
       style="fill:#ffffff;fill-opacity:1;stroke-width:0.716363" />
    <path
       class="st4"
       d="m 66.11995,171.00764 c 4.727996,-2.65054 6.877085,-4.65636 8.954538,-5.08618 0,0 -0.214909,0.28655 -0.358182,0.788 -1.790907,4.29818 0.286546,5.65927 2.220726,5.65927 4.083269,0 7.521812,-3.00872 8.954538,-4.51309 0.143273,0.50146 0.501455,1.79091 1.647635,1.86255 2.077453,0.28654 4.08327,-0.85964 5.372723,-4.01163 1.146181,-2.65055 1.217818,-7.52182 -1.361089,-8.88291 -0.429818,-0.21491 -1.002909,3.72509 -0.716363,3.86836 1.575998,0.85964 1.719271,2.43564 1.575998,2.93709 -0.57309,1.64764 -2.722179,2.65055 -3.796724,2.43564 -0.931272,-0.14328 -1.575999,-1.07455 -1.36109,-1.71927 0.214909,-0.5731 0.358182,-3.29527 0,-2.50728 -0.716363,1.64764 -5.874177,7.59345 -10.67381,6.59054 -1.504362,-0.28654 -0.931272,-2.50727 -0.429817,-2.93708 0.286545,-0.21491 0.358181,-1.00291 0.501454,-2.14909 0.143272,-1.43273 0,-1.93418 -0.429818,-2.00582 -1.93418,-0.21491 -5.945814,3.152 -10.67381,5.80254 0,0 -1.575999,1.14618 -3.725088,1.71927 -3.725088,0.93127 -7.378539,-0.57309 -8.453084,-4.72799 -0.501454,-2.00582 -0.787999,-5.08618 0,-7.95163 -0.501454,1.07454 -1.504362,4.87127 -1.146181,8.73963 0.429818,5.30108 5.874177,10.38726 13.897444,5.94581"
       id="path159"
       style="stroke-width:0.716363;fill:#ffffff;fill-opacity:1" />
    <path
       class="st4"
       d="m 77.581759,123.72768 c 0.57309,-0.35818 0.716363,-0.57309 0.501454,-0.71636 -1.074545,-0.85964 -2.72218,-2.07746 -3.080361,-2.14909 -0.214909,0 -0.644727,0.28654 -1.146181,0.64472 -0.859636,0.64473 -0.859636,0.788 -0.788,1.00291 0,0.14327 0.788,0.64473 1.432727,1.07455 0.716363,0.50145 1.361089,0.93127 1.575998,0.93127 0.214909,0 1.002909,-0.42982 1.504363,-0.788"
       id="path161"
       style="stroke-width:0.716363;fill:#ffffff;fill-opacity:1" />
    <path
       class="st4"
       d="m 78.656303,127.23786 c 0.573091,-0.35818 0.716363,-0.57309 0.501455,-0.71636 -1.074545,-0.85964 -2.72218,-2.07746 -3.080362,-2.14909 -0.214909,0 -0.644726,0.28654 -1.146181,0.64472 -0.859635,0.64473 -0.931272,0.788 -0.787999,1.00291 0,0.14327 0.787999,0.64473 1.432726,1.07455 0.716363,0.50145 1.36109,0.93127 1.575999,0.93127 0.214909,0 1.002908,-0.42982 1.504362,-0.71637"
       id="path163"
       style="stroke-width:0.716363;fill:#ffffff;fill-opacity:1" />
    <path
       class="st4"
       d="m 90.189749,146.79457 c 0.57309,-0.35818 0.716363,-0.57309 0.501454,-0.71636 -1.074545,-0.85964 -2.72218,-2.07746 -3.080361,-2.14909 -0.214909,0 -0.644727,0.28654 -1.146181,0.64472 -0.859636,0.64473 -0.859636,0.788 -0.788,1.00291 0,0.14328 0.788,0.64473 1.432727,1.07455 0.716363,0.50145 1.361089,0.93127 1.575998,0.93127 0.214909,0 1.002909,-0.42982 1.504363,-0.71636"
       id="path165"
       style="stroke-width:0.716363;fill:#ffffff;fill-opacity:1" />
    <path
       class="st4"
       d="m 91.264293,150.30475 c 0.573091,-0.35818 0.716363,-0.57309 0.501455,-0.71636 -1.074545,-0.85964 -2.72218,-2.07746 -3.080362,-2.14909 -0.214909,0 -0.644726,0.28654 -1.146181,0.64472 -0.859635,0.64473 -0.859635,0.788 -0.787999,1.00291 0,0.14327 0.787999,0.64473 1.432726,1.07455 0.716363,0.50145 1.36109,0.93127 1.575999,0.93127 0.214909,0 1.002908,-0.42982 1.504362,-0.788"
       id="path167"
       style="stroke-width:0.716363;fill:#ffffff;fill-opacity:1" />
    <path
       class="st4"
       d="m 73.928307,103.81279 c 2.937089,13.89744 -15.688351,20.55962 -18.911985,32.88106 0.787999,-12.10654 19.914893,-19.48507 18.911985,-32.88106"
       id="path169"
       style="stroke-width:0.716363;fill:#ffffff;fill-opacity:1" />
  </g>
</svg>
