<?xml version="1.0" encoding="UTF-8"?>
<svg id="Layer_1" xmlns="http://www.w3.org/2000/svg" version="1.1" viewBox="0 0 566.9 566.9">
  <!-- Generator: Adobe Illustrator 29.0.0, SVG Export Plug-In . SVG Version: 2.1.0 Build 186)  -->
  <defs>
    <style>
      .st0 {
        fill: #fff;
      }

      .st1 {
        fill: #f1f2f2;
      }

      .st1, .st2 {
        display: none;
      }

      .st3 {
        fill: #808285;
      }

      .st4 {
        fill: #002e6d;
      }

      .st5 {
        fill: #76777a;
      }
    </style>
  </defs>
  <rect class="st1" x="14.2" y="14.2" width="538.6" height="538.6"/>
  <g class="st2">
    <g>
      <g>
        <path class="st4" d="M290,268.9c3.4-1.3,5.2-3,6.4-5.1,2.3-3.9,3.2-11.4-.8-13.9-.7-.4-2.3,5.5-1.8,5.8,2.5,1.6,2.5,4.1,2.1,4.8-2.3,4.5-13.3,5.2-18,4.2-1.7-.3-2.7-.7-2.8-2.2,0-1.1,1.8-3.2,4.3-2.3,6.6,2.2,8.8,10.9,8.8,11,0,2.5-3.2,6.2-9.1,10.5-4.1,3-9.5,5.7-15,7.1-7.5,1.8-13.5-2.4-15-9.7-.9-4.5-.8-10.5-.4-13.2-2.1,6.3-2.8,26.2,11.7,29.1,12.8,2.5,26.7-13.8,28.2-17.6.8-1.9,1.3-4.8,1.4-5.7.8-6.6-4.8-16.6-9.8-17.1-3.8-.4-7.7,3.9-7.7,9.3,0,3.6,1.4,5.5,4.1,6,3.2.6,5.6.7,11.5-.5l2-.6Z"/>
        <path class="st4" d="M265.8,308.9c6.6-3.7,9.6-6.5,12.5-7,0,0-.3.4-.5,1.1-2.5,6,.4,7.9,3.1,7.9,5.7,0,10.5-4.2,12.5-6.3.2.7.7,2.4,2.3,2.6,2.9.4,5.7-1.2,7.5-5.6,1.6-3.7,1.7-10.5-1.9-12.4-.6-.3-1.4,5.2-1,5.4,2.2,1.2,2.4,3.4,2.2,4.1-.8,2.3-3.8,3.6-5.3,3.4-1.3-.2-2.2-1.5-1.9-2.4.3-.8.5-4.6,0-3.5-1,2.3-8.2,10.6-14.8,9.1-2.1-.4-1.3-3.5-.6-4.1.4-.3.5-1.4.7-3,.2-2,0-2.7-.6-2.8-2.7-.3-8.2,4.4-14.9,8.1,0,0-2.2,1.6-5.2,2.4-5.2,1.3-10.2-.8-11.8-6.6-.7-2.8-1.1-7.1,0-11.1-.7,1.5-2.1,6.8-1.6,12.2.6,7.4,8.2,14.5,19.4,8.3Z"/>
        <path class="st4" d="M281.8,242.9c.8-.5,1-.8.7-1-1.5-1.2-3.8-2.9-4.3-3-.3,0-.9.4-1.6.9-1.2.9-1.2,1.1-1.1,1.4,0,.2,1.1.9,2,1.5,1,.7,1.9,1.3,2.2,1.3.3,0,1.4-.6,2.1-1.1Z"/>
        <path class="st4" d="M283.3,247.8c.8-.5,1-.8.7-1-1.5-1.2-3.8-2.9-4.3-3-.3,0-.9.4-1.6.9-1.2.9-1.2,1.1-1.1,1.4.1.2,1.1.9,2,1.5,1,.7,1.9,1.3,2.2,1.3s1.4-.6,2-1Z"/>
        <path class="st4" d="M299.4,275.1c.8-.5,1-.8.7-1-1.5-1.2-3.8-2.9-4.3-3-.3,0-.9.4-1.6.9-1.2.9-1.2,1.1-1.1,1.4,0,.2,1.1.9,2,1.5,1,.7,1.9,1.3,2.2,1.3.3,0,1.4-.6,2.1-1Z"/>
        <path class="st4" d="M300.9,280c.8-.5,1-.8.7-1-1.5-1.2-3.8-2.9-4.3-3-.3,0-.9.4-1.6.9-1.2.9-1.2,1.1-1.1,1.4,0,.2,1.1.9,2,1.5,1,.7,1.9,1.3,2.2,1.3s1.4-.6,2.1-1.1Z"/>
        <path class="st4" d="M276.8,215.2c4.1,19.3-21.9,28.7-26.4,45.9,1.1-16.9,27.8-27.1,26.4-45.9Z"/>
      </g>
      <g>
        <path class="st5" d="M292.7,291.2c.8-.6,1.1-.9.7-1.2-1.7-1.2-4.5-3-5-3-.4,0-.9.5-1.8,1.1-1.3,1.1-1.3,1.3-1.1,1.6.1.2,1.3.9,2.4,1.5,1.2.7,2.3,1.3,2.5,1.3.3,0,1.5-.8,2.2-1.3Z"/>
        <path class="st5" d="M312.8,291.9c1.2,2.2,1.9,4.5,1.6,7-.1.9-.7,4.6-1.5,6.4-1.6,3.7-16.2,21-28.9,18.3-14.4-3-13.5-22.9-11.3-29.2-.5,2.7-.7,8.7.2,13.2,1.4,7.3,7.4,11.6,14.9,9.8,5.5-1.3,11.2-4.8,15.4-7.7,6-4.2,9.4-8.2,9.5-10.7.1-4.3-11.1-10-7-19.1,0,1.5,1,3.2,2.5,5.1,0,0,1.2,1.5,3.7,1.6,2.2.1,5.5-.9,6.7-3.3.3-.7.3-3.3-2.1-4.8-.5-.3,1.2-6.3,1.8-5.8,4,2.6,2.9,9.9.8,13.9-2.2,4.2-5,5-6,5.2h0Z"/>
        <path class="st5" d="M312.5,265c.8-.5,1-.8.7-1-1.5-1.2-3.8-2.9-4.3-3-.3,0-.9.4-1.6.9-1.2.9-1.2,1.1-1.1,1.4.1.2,1.1.9,2,1.5,1,.7,1.9,1.3,2.2,1.3.3,0,1.4-.6,2.1-1Z"/>
        <path class="st5" d="M314,269.9c.8-.5,1-.8.7-1-1.5-1.2-3.8-2.9-4.3-3-.3,0-.9.4-1.6.9-1.2.9-1.2,1.1-1.1,1.4,0,.2,1.1.9,2,1.5,1,.7,1.9,1.3,2.2,1.3.3,0,1.4-.6,2.1-1Z"/>
        <path class="st5" d="M257.4,268.2c9.1,3.8,19.2,8.6,17.1,15,4.2-7.7-7.6-12.4-16.3-16.4-9.8-4.4-19.4-7.9-9.7-16.3-11,8.7-1.5,13.2,8.9,17.6Z"/>
      </g>
      <g>
        <path class="st4" d="M234.7,335.1h-3.9v-1.4h9.5v1.4h-3.9v11.4h-1.7v-11.4Z"/>
        <path class="st4" d="M247,342.5l-1.3,4h-1.7l4.4-12.8h2l4.4,12.8h-1.8l-1.4-4h-4.5ZM251.2,341.2l-1.3-3.7c-.3-.8-.5-1.6-.7-2.3h0c-.2.8-.4,1.5-.6,2.3l-1.3,3.7h3.9Z"/>
        <path class="st4" d="M261.1,346.5v-12.8h1.8l4.1,6.5c.9,1.5,1.7,2.8,2.3,4.2h0c-.2-1.7-.2-3.3-.2-5.3v-5.4h1.6v12.8h-1.7l-4.1-6.5c-.9-1.4-1.7-2.9-2.4-4.3h0c0,1.6.1,3.2.1,5.3v5.5h-1.6Z"/>
        <path class="st4" d="M277.9,344.5c.7.5,1.8.8,3,.8,1.7,0,2.7-.9,2.7-2.2s-.7-1.9-2.4-2.5c-2.1-.7-3.4-1.8-3.4-3.6s1.7-3.5,4.1-3.5,2.3.3,2.8.6l-.5,1.3c-.4-.2-1.3-.6-2.4-.6-1.7,0-2.4,1-2.4,1.9s.8,1.8,2.5,2.5c2.2.8,3.3,1.9,3.3,3.8s-1.5,3.7-4.5,3.7-2.6-.4-3.3-.8l.4-1.4Z"/>
        <path class="st4" d="M298.7,340.5h-5v4.6h5.5v1.4h-7.2v-12.8h6.9v1.4h-5.3v4h5v1.4Z"/>
        <path class="st4" d="M312.6,340.5h-5v4.6h5.5v1.4h-7.2v-12.8h6.9v1.4h-5.3v4h5v1.4Z"/>
        <path class="st4" d="M330.4,348.4c-1.7-.5-3.4-1-4.9-1.5-.3,0-.5-.2-.8-.2-3-.1-5.6-2.4-5.6-6.5s2.5-6.7,6-6.7,5.7,2.7,5.7,6.5-1.5,5.4-3.6,6.1h0c1.3.4,2.7.7,3.7.9l-.5,1.4ZM329.1,340.1c0-2.6-1.3-5.2-4-5.2s-4.2,2.6-4.1,5.4c0,2.7,1.5,5.2,4.1,5.2s4.1-2.4,4.1-5.3Z"/>
      </g>
      <g>
        <path class="st4" d="M256.7,352.7c.4,0,1-.1,1.5-.1.8,0,1.4.2,1.8.5.3.3.5.7.5,1.2,0,.8-.5,1.3-1.1,1.6h0c.5.2.8.6.9,1.3.2.8.3,1.4.5,1.7h-.8c0-.2-.2-.7-.4-1.5-.2-.8-.5-1.2-1.2-1.2h-.7v2.6h-.8v-6ZM257.4,355.5h.8c.8,0,1.4-.5,1.4-1.2s-.6-1.1-1.4-1.1c-.4,0-.7,0-.8,0v2.2Z"/>
        <path class="st4" d="M269.6,355.9h-2.4v2.2h2.6v.7h-3.4v-6.1h3.3v.7h-2.5v1.9h2.4v.7Z"/>
        <path class="st4" d="M276.7,356.8l-.6,1.9h-.8l2.1-6.1h1l2.1,6.1h-.8l-.7-1.9h-2.2ZM278.7,356.2l-.6-1.8c-.1-.4-.2-.8-.3-1.1h0c0,.4-.2.7-.3,1.1l-.6,1.8h1.8Z"/>
        <path class="st4" d="M286.2,352.6h.8v5.4h2.6v.7h-3.4v-6.1Z"/>
        <path class="st4" d="M295.7,353.3h-1.9v-.7h4.5v.7h-1.9v5.4h-.8v-5.4Z"/>
        <path class="st4" d="M305.5,358.7v-2.6l-1.9-3.5h.9l.9,1.7c.2.5.4.8.6,1.3h0c.2-.4.4-.8.6-1.3l.9-1.7h.9l-2,3.5v2.6h-.8Z"/>
      </g>
    </g>
    <g>
      <g>
        <path class="st4" d="M202,463.2c0,2.3-1.8,4.1-4.1,4.1s-4.1-1.8-4.1-4.1,1.8-4.1,4.1-4.1,4.1,1.8,4.1,4.1Z"/>
        <g>
          <path class="st3" d="M206.7,459.7c.4,0,.9-.1,1.4-.1s1.4.2,1.8.6c.3.3.5.8.5,1.3s-.2,1-.5,1.3c-.4.5-1.2.8-2,.8s-.6,0-.8,0v2.9h-.5v-6.7ZM207.2,463c.2,0,.5,0,.9,0,1.2,0,1.9-.6,1.9-1.6s-.8-1.5-1.8-1.5-.8,0-.9,0v3Z"/>
          <path class="st3" d="M214.4,465.2c0,.4,0,.8,0,1.1h-.4v-.7h0c-.2.4-.8.8-1.5.8s-1.4-.7-1.4-1.3c0-1.1,1-1.8,2.9-1.8h0c0-.6,0-1.5-1.2-1.5-.4,0-.9.1-1.2.4l-.2-.3c.4-.3,1-.4,1.4-.4,1.4,0,1.7,1,1.7,1.9v1.9ZM213.9,463.8c-1,0-2.4.1-2.4,1.3s.5,1,1,1c.8,0,1.3-.5,1.4-1,0,0,0-.2,0-.3v-1Z"/>
          <path class="st3" d="M216,462.7c0-.4,0-.8,0-1.1h.4v.9h0c.3-.5.9-1,1.6-1s1.7.2,1.7,2v2.9h-.5v-2.8c0-.9-.3-1.7-1.3-1.7s-1.2.5-1.4,1.1c0,.1,0,.3,0,.4v3h-.5v-3.6Z"/>
          <path class="st3" d="M222,460.5v1.1h1.4v.4h-1.4v3.1c0,.6.2,1,.7,1s.4,0,.5,0v.4c0,0-.3.1-.6.1s-.6-.1-.8-.3c-.2-.2-.3-.7-.3-1.1v-3h-.8v-.4h.8v-.9l.5-.2Z"/>
          <path class="st3" d="M226.1,466.5c-1.2,0-2.2-1-2.2-2.5s1.1-2.5,2.3-2.5,2.2,1,2.2,2.5-1.2,2.5-2.3,2.5h0ZM226.2,466.1c1,0,1.8-.9,1.8-2.1s-.5-2.1-1.8-2.1-1.8,1.1-1.8,2.1.8,2.1,1.7,2.1h0Z"/>
          <path class="st3" d="M229.7,462.7c0-.4,0-.8,0-1.1h.5v.9h0c.3-.5.9-1,1.6-1s1.7.2,1.7,2v2.9h-.5v-2.8c0-.9-.3-1.7-1.3-1.7s-1.2.5-1.4,1.1c0,.1,0,.3,0,.4v3h-.5v-3.6Z"/>
          <path class="st3" d="M235.1,463.9c0,1.5.8,2.1,1.8,2.1s1.1-.1,1.3-.3v.4c0,0-.5.3-1.4.3-1.4,0-2.2-1-2.2-2.4s.9-2.6,2.2-2.6,1.9,1.5,1.9,2.2,0,.2,0,.3h-3.5ZM238.2,463.5c0-.7-.3-1.7-1.4-1.7s-1.5.9-1.6,1.7h3Z"/>
          <path class="st3" d="M241.7,466.3v-.3l.6-.6c1.8-1.8,2.6-2.7,2.6-3.8s-.3-1.5-1.4-1.5-1.1.3-1.4.6l-.2-.3c.4-.4,1-.7,1.7-.7,1.3,0,1.8,1,1.8,1.8,0,1.3-.9,2.3-2.6,3.9l-.5.5h0s3.2,0,3.2,0v.4h-3.9Z"/>
          <path class="st3" d="M247.1,466c.2,0,.4,0,.7,0,.5,0,1-.3,1.4-.8.4-.5.8-1.1.9-2.1h0c-.4.5-1,.8-1.7.8-1.2,0-1.8-.9-1.8-2s.8-2.3,2.1-2.3,2,.9,2,2.7-.5,2.5-1.1,3.1c-.4.4-1,.7-1.5.8-.3,0-.7,0-.9,0v-.4ZM248.6,460.1c-.9,0-1.5.8-1.5,1.9s.6,1.6,1.5,1.6,1.3-.4,1.5-.8c0,0,0-.2,0-.3,0-1.4-.5-2.3-1.6-2.3h0Z"/>
          <path class="st3" d="M254.2,466.3v-1.9h-3.1v-.3l3.2-4.3h.4v4.2h1v.4h-1v1.9h-.5ZM254.2,464v-2.6c0-.3,0-.6,0-.9h0c-.2.4-.3.6-.5.8l-2,2.7h0s2.5,0,2.5,0Z"/>
          <path class="st3" d="M263.5,466.1c-.3.2-1,.3-1.8.3-1.6,0-3.2-1-3.2-3.4s1.3-3.5,3.4-3.5,1.4.2,1.6.3l-.2.4c-.3-.2-.8-.3-1.4-.3-1.8,0-2.9,1.2-2.9,3.1s1,3,2.8,3,1.1-.1,1.5-.3v.4Z"/>
        </g>
      </g>
      <g>
        <path class="st5" d="M280.3,462c0,2.3-1.8,4.1-4.1,4.1s-4.1-1.8-4.1-4.1,1.8-4.1,4.1-4.1,4.1,1.8,4.1,4.1Z"/>
        <g>
          <path class="st3" d="M285,459.5c.4,0,.9-.1,1.4-.1s1.4.2,1.8.6c.3.3.5.8.5,1.3s-.2,1-.5,1.3c-.4.5-1.1.7-2,.7s-.6,0-.8,0v2.9h-.5v-6.7ZM285.5,462.9c.2,0,.5,0,.9,0,1.2,0,1.9-.6,1.9-1.7s-.8-1.5-1.8-1.5-.8,0-.9,0v3Z"/>
          <path class="st3" d="M292.7,465c0,.4,0,.8,0,1.1h-.4v-.7h0c-.2.4-.8.8-1.5.8s-1.4-.7-1.4-1.3c0-1.1,1-1.8,2.9-1.8h0c0-.6,0-1.5-1.2-1.5-.4,0-.9.1-1.2.4l-.2-.3c.4-.3,1-.4,1.4-.4,1.4,0,1.7,1,1.7,1.9v1.9ZM292.2,463.6c-1.1,0-2.4.1-2.4,1.3s.5,1,1,1c.8,0,1.3-.5,1.4-1,0-.1,0-.2,0-.3v-1Z"/>
          <path class="st3" d="M294.3,462.5c0-.4,0-.8,0-1.1h.5v.9h0c.3-.5.9-1,1.6-1s1.7.2,1.7,2v2.9h-.5v-2.8c0-.9-.3-1.7-1.3-1.7s-1.2.5-1.4,1.1c0,.1,0,.3,0,.4v3h-.5v-3.6Z"/>
          <path class="st3" d="M300.3,460.3v1.1h1.4v.4h-1.4v3.1c0,.6.2,1,.7,1s.4,0,.6,0v.4c-.1,0-.3.1-.6.1s-.6-.1-.8-.3c-.2-.2-.3-.7-.3-1.2v-3h-.8v-.4h.8v-.9l.5-.2Z"/>
          <path class="st3" d="M304.5,466.3c-1.2,0-2.2-1-2.2-2.5s1.1-2.5,2.3-2.5,2.2,1,2.2,2.5-1.2,2.5-2.3,2.5h0ZM304.5,465.9c1,0,1.8-.9,1.8-2.1s-.5-2.1-1.8-2.1-1.8,1.1-1.8,2.1.8,2.1,1.7,2.1h0Z"/>
          <path class="st3" d="M308,462.5c0-.4,0-.8,0-1.1h.4v.9h0c.3-.5.9-1,1.6-1s1.7.2,1.7,2v2.9h-.5v-2.8c0-.9-.3-1.7-1.3-1.7s-1.2.5-1.4,1.1c0,.1,0,.3,0,.4v3h-.5v-3.6Z"/>
          <path class="st3" d="M313.4,463.7c0,1.5.8,2.1,1.8,2.1s1.1-.1,1.3-.3v.4c0,0-.6.3-1.4.3-1.4,0-2.2-1-2.2-2.4s.9-2.6,2.2-2.6,1.9,1.5,1.9,2.2,0,.2,0,.3h-3.5ZM316.5,463.3c0-.7-.3-1.7-1.4-1.7s-1.5.9-1.6,1.7h3Z"/>
          <path class="st3" d="M325,465.9c-.3.2-1,.3-1.8.3-1.6,0-3.2-1-3.2-3.4s1.3-3.5,3.4-3.5,1.4.2,1.6.3v.4c-.5-.2-1-.3-1.5-.3-1.8,0-2.9,1.2-2.9,3.1s1,3,2.8,3,1.1-.1,1.5-.3v.4Z"/>
          <path class="st3" d="M327.8,466.3c-1.2,0-2.2-1-2.2-2.5s1.1-2.5,2.3-2.5,2.2,1,2.2,2.5-1.2,2.5-2.3,2.5h0ZM327.9,465.9c1,0,1.8-.9,1.8-2.1s-.5-2.1-1.8-2.1-1.8,1.1-1.8,2.1.8,2.1,1.7,2.1h0Z"/>
          <path class="st3" d="M333.1,466.3c-1.2,0-2.2-1-2.2-2.5s1.1-2.5,2.3-2.5,2.2,1,2.2,2.5-1.2,2.5-2.3,2.5h0ZM333.2,465.9c1,0,1.8-.9,1.8-2.1s-.5-2.1-1.8-2.1-1.8,1.1-1.8,2.1.8,2.1,1.7,2.1h0Z"/>
          <path class="st3" d="M336.7,459.1h.5v7.1h-.5v-7.1Z"/>
          <path class="st3" d="M345.8,465.9c-.3.1-1,.4-2,.4s-1.7-.2-2.4-.9c-.6-.5-.9-1.4-.9-2.5,0-1.9,1.2-3.5,3.5-3.5s1.3.2,1.6.3l-.2.4c-.3-.2-.8-.3-1.4-.3-1.8,0-3,1.2-3,3s1.1,3,2.9,3,1.2,0,1.4-.2v-2.4h-1.6v-.4h2v3Z"/>
          <path class="st3" d="M347.2,462.8c0-.5,0-1,0-1.4h.4v1h0c.2-.6.7-1.1,1.4-1.1s.1,0,.2,0v.4c0,0-.1,0-.2,0-.7,0-1.1.6-1.3,1.3,0,.1,0,.3,0,.5v2.6h-.5v-3.4Z"/>
          <path class="st3" d="M353.2,465c0,.4,0,.8,0,1.1h-.4v-.7h0c-.2.4-.8.8-1.5.8s-1.4-.7-1.4-1.3c0-1.1,1-1.8,2.9-1.8h0c0-.6,0-1.5-1.2-1.5-.4,0-.9.1-1.2.4l-.2-.3c.4-.3,1-.4,1.4-.4,1.4,0,1.7,1,1.7,1.9v1.9ZM352.7,463.6c-1.1,0-2.4.1-2.4,1.3s.5,1,1,1c.8,0,1.3-.5,1.4-1,0-.1,0-.2,0-.3v-1Z"/>
          <path class="st3" d="M354.5,461.4l1.3,3.1c.1.3.3.7.3,1h0c0-.3.2-.7.4-1.1l1.2-3.1h.5l-1.4,3.6c-.6,1.5-1,2.4-1.6,2.9-.4.3-.7.5-.8.5v-.4c0,0,.4-.3.7-.5.2-.2.6-.6.8-1.2,0,0,0-.2,0-.2s0-.1,0-.2l-1.8-4.4h.5Z"/>
          <path class="st3" d="M361.4,465.8c.2,0,.4,0,.7,0,.5,0,1-.3,1.4-.8.4-.5.8-1.1.9-2.1h0c-.4.5-1,.8-1.7.8-1.2,0-1.8-.9-1.8-2s.8-2.3,2.1-2.3,2,.9,2,2.7-.5,2.5-1.1,3.1c-.4.4-1,.7-1.5.8-.3,0-.7.1-.9,0v-.4ZM362.9,460c-.9,0-1.5.8-1.5,1.9s.6,1.6,1.5,1.6,1.3-.4,1.5-.8c0,0,0-.2,0-.3,0-1.4-.5-2.3-1.6-2.3h0Z"/>
          <path class="st3" d="M372.9,465.9c-.3.2-1,.3-1.8.3-1.6,0-3.2-1-3.2-3.4s1.3-3.5,3.4-3.5,1.4.2,1.6.3v.4c-.5-.2-1-.3-1.5-.3-1.8,0-2.9,1.2-2.9,3.1s1,3,2.8,3,1.1-.1,1.5-.3v.4Z"/>
        </g>
      </g>
    </g>
  </g>
  <g>
    <g>
      <path class="st0" d="M302.6,232.3c.8-.6,1.1-1,.7-1.2-1.7-1.2-4.5-3-5-3.1-.4,0-1,.5-1.8,1.1-1.3,1.1-1.3,1.3-1.1,1.6.1.2,1.3.9,2.4,1.5,1.2.7,2.3,1.3,2.5,1.3.3,0,1.5-.8,2.2-1.3"/>
      <path class="st0" d="M322.7,232.9c1.2,2.2,1.9,4.5,1.6,7-.1.9-.7,4.6-1.5,6.4-1.6,3.7-16.2,21-29,18.3-14.4-3-13.5-23-11.3-29.2-.5,2.7-.7,8.7.2,13.2,1.4,7.3,7.4,11.6,14.9,9.9,5.6-1.3,11.3-4.8,15.4-7.7,6-4.2,9.4-8.2,9.5-10.7.1-4.3-11.1-10-7-19.1,0,1.5,1,3.2,2.5,5.1,0,0,1.2,1.5,3.7,1.6,2.2.1,5.5-.9,6.7-3.3.3-.7.3-3.3-2.1-4.8-.5-.3,1.2-6.3,1.8-5.9,4,2.6,2.9,9.9.8,14-2.2,4.2-5.1,5-6,5.2h0Z"/>
      <path class="st0" d="M322.4,206c.8-.5,1-.8.7-1-1.5-1.2-3.8-2.9-4.3-3-.3,0-.9.4-1.6.9-1.2.9-1.2,1.1-1.1,1.4.1.2,1.1.9,2,1.5,1,.7,1.9,1.3,2.2,1.3.3,0,1.4-.6,2.1-1"/>
      <path class="st0" d="M323.9,210.9c.8-.5,1-.8.7-1-1.5-1.2-3.8-2.9-4.3-3-.3,0-.9.4-1.6.9-1.2.9-1.2,1.1-1.1,1.4,0,.2,1.1.9,2,1.5,1,.7,1.9,1.3,2.2,1.3.3,0,1.4-.6,2.1-1.1"/>
      <path class="st0" d="M267.2,209.2c9.1,3.8,19.2,8.6,17.1,15,4.2-7.7-7.6-12.4-16.4-16.4-9.8-4.4-19.4-7.9-9.7-16.3-11,8.7-1.5,13.2,8.9,17.6"/>
      <path class="st0" d="M299.9,209.9c3.4-1.3,5.2-3,6.5-5.1,2.3-3.9,3.2-11.4-.8-14-.7-.4-2.3,5.5-1.8,5.9,2.5,1.6,2.5,4.2,2.1,4.8-2.3,4.5-13.3,5.2-18,4.2-1.7-.3-2.7-.7-2.9-2.2,0-1.1,1.8-3.2,4.3-2.3,6.6,2.2,8.8,10.9,8.8,11,0,2.6-3.2,6.2-9.1,10.5-4.1,3-9.5,5.7-15.1,7.1-7.5,1.8-13.5-2.4-15.1-9.7-.9-4.5-.8-10.5-.4-13.2-2.1,6.3-2.8,26.2,11.7,29.1,12.8,2.5,26.7-13.8,28.3-17.6.8-1.9,1.3-4.8,1.4-5.8.8-6.6-4.8-16.6-9.8-17.1-3.8-.4-7.7,3.9-7.7,9.3,0,3.6,1.4,5.5,4.1,6,3.2.6,5.6.7,11.5-.5l2-.6Z"/>
      <path class="st0" d="M275.7,249.9c6.6-3.7,9.6-6.5,12.5-7.1,0,0-.3.4-.5,1.1-2.5,6,.4,7.9,3.1,7.9,5.7,0,10.5-4.2,12.5-6.3.2.7.7,2.5,2.3,2.6,2.9.4,5.7-1.2,7.5-5.6,1.6-3.7,1.7-10.5-1.9-12.4-.6-.3-1.4,5.2-1,5.4,2.2,1.2,2.4,3.4,2.2,4.1-.8,2.3-3.8,3.7-5.3,3.4-1.3-.2-2.2-1.5-1.9-2.4.3-.8.5-4.6,0-3.5-1,2.3-8.2,10.6-14.9,9.2-2.1-.4-1.3-3.5-.6-4.1.4-.3.5-1.4.7-3,.2-2,0-2.7-.6-2.8-2.7-.3-8.3,4.4-14.9,8.1,0,0-2.2,1.6-5.2,2.4-5.2,1.3-10.3-.8-11.8-6.6-.7-2.8-1.1-7.1,0-11.1-.7,1.5-2.1,6.8-1.6,12.2.6,7.4,8.2,14.5,19.4,8.3"/>
      <path class="st0" d="M291.7,183.9c.8-.5,1-.8.7-1-1.5-1.2-3.8-2.9-4.3-3-.3,0-.9.4-1.6.9-1.2.9-1.2,1.1-1.1,1.4,0,.2,1.1.9,2,1.5,1,.7,1.9,1.3,2.2,1.3.3,0,1.4-.6,2.1-1.1"/>
      <path class="st0" d="M293.2,188.8c.8-.5,1-.8.7-1-1.5-1.2-3.8-2.9-4.3-3-.3,0-.9.4-1.6.9-1.2.9-1.3,1.1-1.1,1.4,0,.2,1.1.9,2,1.5,1,.7,1.9,1.3,2.2,1.3s1.4-.6,2.1-1"/>
      <path class="st0" d="M309.3,216.1c.8-.5,1-.8.7-1-1.5-1.2-3.8-2.9-4.3-3-.3,0-.9.4-1.6.9-1.2.9-1.2,1.1-1.1,1.4,0,.2,1.1.9,2,1.5,1,.7,1.9,1.3,2.2,1.3.3,0,1.4-.6,2.1-1"/>
      <path class="st0" d="M310.8,221c.8-.5,1-.8.7-1-1.5-1.2-3.8-2.9-4.3-3-.3,0-.9.4-1.6.9-1.2.9-1.2,1.1-1.1,1.4,0,.2,1.1.9,2,1.5,1,.7,1.9,1.3,2.2,1.3s1.4-.6,2.1-1.1"/>
      <path class="st0" d="M286.6,156.1c4.1,19.4-21.9,28.7-26.4,45.9,1.1-16.9,27.8-27.2,26.4-45.9"/>
      <polygon class="st0" points="244.6 276.2 240.7 276.2 240.7 274.8 250.2 274.8 250.2 276.2 246.2 276.2 246.2 287.6 244.6 287.6 244.6 276.2"/>
      <path class="st0" d="M256.8,283.6l-1.3,4h-1.7l4.4-12.8h2l4.4,12.8h-1.8l-1.4-4h-4.5ZM261,282.3l-1.3-3.7c-.3-.8-.5-1.6-.7-2.3h0c-.2.8-.4,1.5-.6,2.3l-1.3,3.7h3.9Z"/>
      <path class="st0" d="M270.9,287.6v-12.8h1.8l4.1,6.5c1,1.5,1.7,2.9,2.3,4.2h0c-.2-1.7-.2-3.3-.2-5.3v-5.4h1.6v12.8h-1.7l-4.1-6.5c-.9-1.4-1.8-2.9-2.4-4.3h0c0,1.6.1,3.2.1,5.3v5.5h-1.6Z"/>
      <path class="st0" d="M287.8,285.6c.7.5,1.8.8,3,.8,1.7,0,2.7-.9,2.7-2.2s-.7-1.9-2.4-2.5c-2.1-.7-3.4-1.8-3.4-3.6s1.7-3.5,4.1-3.5,2.3.3,2.8.6l-.5,1.3c-.4-.2-1.3-.6-2.4-.6-1.7,0-2.4,1-2.4,1.9s.8,1.8,2.5,2.5c2.2.8,3.3,1.9,3.3,3.8s-1.5,3.7-4.5,3.7-2.6-.4-3.3-.8l.4-1.4Z"/>
      <polygon class="st0" points="308.6 281.6 303.6 281.6 303.6 286.2 309.2 286.2 309.2 287.6 301.9 287.6 301.9 274.8 308.9 274.8 308.9 276.2 303.6 276.2 303.6 280.2 308.6 280.2 308.6 281.6"/>
      <polygon class="st0" points="322.5 281.6 317.5 281.6 317.5 286.2 323.1 286.2 323.1 287.6 315.9 287.6 315.9 274.8 322.8 274.8 322.8 276.2 317.5 276.2 317.5 280.2 322.5 280.2 322.5 281.6"/>
      <path class="st0" d="M340.4,289.5c-1.7-.5-3.4-1-4.9-1.5-.3,0-.5-.2-.8-.2-3-.1-5.6-2.4-5.6-6.5s2.5-6.8,6-6.8,5.7,2.7,5.7,6.5-1.5,5.4-3.7,6.1h0c1.3.4,2.7.7,3.7.9l-.5,1.4ZM339,281.1c0-2.6-1.3-5.2-4.1-5.2s-4.2,2.6-4.1,5.4c0,2.7,1.5,5.2,4.1,5.2s4.1-2.4,4.1-5.3"/>
      <rect class="st0" x="252.9" y="293.7" width=".8" height="6.1"/>
      <path class="st0" d="M258.5,299.8v-6.1h.9l2,3.1c.5.7.8,1.4,1.1,2h0c0-.8,0-1.6,0-2.5v-2.6h.7v6.1h-.8l-1.9-3.1c-.4-.7-.8-1.4-1.1-2h0c0,.8,0,1.5,0,2.5v2.6h-.7Z"/>
      <path class="st0" d="M269.2,299.8l-2-6.1h.9l1,3c.3.8.5,1.6.7,2.3h0c.2-.7.4-1.5.7-2.3l1-3h.8l-2.2,6.1h-.9Z"/>
      <polygon class="st0" points="279.5 297 277.1 297 277.1 299.2 279.8 299.2 279.8 299.8 276.3 299.8 276.3 293.7 279.6 293.7 279.6 294.4 277.1 294.4 277.1 296.3 279.5 296.3 279.5 297"/>
      <path class="st0" d="M284.1,298.9c.4.2.9.4,1.4.4.8,0,1.3-.4,1.3-1s-.3-.9-1.2-1.2c-1-.4-1.6-.9-1.6-1.7s.8-1.7,2-1.7,1.1.1,1.3.3l-.2.6c-.2-.1-.6-.3-1.2-.3-.8,0-1.2.5-1.2.9s.4.9,1.2,1.2c1,.4,1.6.9,1.6,1.8s-.7,1.8-2.1,1.8-1.2-.2-1.6-.4l.2-.7Z"/>
      <polygon class="st0" points="293.3 294.4 291.4 294.4 291.4 293.7 296 293.7 296 294.4 294.1 294.4 294.1 299.8 293.3 299.8 293.3 294.4"/>
      <path class="st0" d="M305.2,297.2c0-.9-.1-1.9,0-2.6h0c-.2.7-.5,1.5-.8,2.3l-1.1,3h-.6l-1-2.9c-.3-.9-.5-1.7-.7-2.4h0c0,.8,0,1.8-.1,2.7l-.2,2.6h-.8l.4-6.1h1l1,3c.3.8.5,1.4.6,2.1h0c.2-.6.4-1.3.6-2.1l1.1-3h1l.4,6.1h-.8l-.2-2.7Z"/>
      <polygon class="st0" points="314 297 311.6 297 311.6 299.2 314.2 299.2 314.2 299.8 310.8 299.8 310.8 293.7 314.1 293.7 314.1 294.4 311.6 294.4 311.6 296.3 314 296.3 314 297"/>
      <path class="st0" d="M318.7,299.8v-6.1h.9l2,3.1c.5.7.8,1.4,1.1,2h0c0-.8,0-1.6,0-2.5v-2.6h.7v6.1h-.8l-1.9-3.1c-.4-.7-.8-1.4-1.1-2h0c0,.8,0,1.5,0,2.5v2.6h-.7Z"/>
      <polygon class="st0" points="329.3 294.4 327.4 294.4 327.4 293.7 331.9 293.7 331.9 294.4 330 294.4 330 299.8 329.3 299.8 329.3 294.4"/>
    </g>
    <g>
      <path class="st0" d="M218.9,322.5c-.4.1-1.2.4-2.2.4s-2-.3-2.7-.9c-.6-.6-1-1.6-1-2.7,0-2.1,1.5-3.7,3.9-3.7s1.5.2,1.8.3l-.2.8c-.4-.2-.9-.3-1.6-.3-1.7,0-2.9,1.1-2.9,2.9s1.1,2.9,2.8,2.9,1,0,1.2-.2v-2.1h-1.5v-.7h2.4v3.5Z"/>
      <path class="st0" d="M223.5,315.7c.5,0,1.1-.1,1.8-.1,1,0,1.6.2,2.1.6.4.3.6.8.6,1.4,0,.9-.6,1.6-1.4,1.8h0c.6.2.9.7,1.1,1.5.2,1,.4,1.7.6,2h-1c-.1-.2-.3-.8-.5-1.7-.2-1-.6-1.4-1.4-1.4h-.9v3.1h-.9v-7.1ZM224.4,319h.9c1,0,1.6-.5,1.6-1.4s-.7-1.3-1.7-1.3c-.4,0-.8,0-.9,0v2.6Z"/>
      <path class="st0" d="M238.5,319.1c0,2.5-1.5,3.8-3.3,3.8s-3.2-1.5-3.2-3.6,1.4-3.8,3.3-3.8,3.2,1.5,3.2,3.6ZM233,319.3c0,1.5.8,2.9,2.3,2.9s2.3-1.4,2.3-3-.7-2.9-2.3-2.9-2.3,1.4-2.3,3Z"/>
      <path class="st0" d="M243.9,315.6v4.2c0,1.6.7,2.3,1.7,2.3s1.7-.7,1.7-2.3v-4.2h.9v4.2c0,2.2-1.2,3.1-2.7,3.1s-2.6-.8-2.6-3.1v-4.2h.9Z"/>
      <path class="st0" d="M253,315.7c.4,0,1-.1,1.8-.1s1.6.2,2,.6c.4.3.6.9.6,1.5s-.2,1.2-.6,1.5c-.5.5-1.3.8-2.2.8s-.5,0-.7,0v2.9h-.9v-7.1ZM253.9,319.2c.2,0,.5,0,.8,0,1.1,0,1.8-.5,1.8-1.5s-.7-1.4-1.7-1.4-.7,0-.9,0v2.8Z"/>
      <path class="st0" d="M273.5,319.1c0,2.5-1.5,3.8-3.3,3.8s-3.2-1.5-3.2-3.6,1.4-3.8,3.3-3.8,3.2,1.5,3.2,3.6ZM267.9,319.3c0,1.5.8,2.9,2.3,2.9s2.3-1.4,2.3-3-.7-2.9-2.3-2.9-2.3,1.4-2.3,3Z"/>
      <path class="st0" d="M277.8,315.6h3.9v.8h-2.9v2.4h2.7v.8h-2.7v3.2h-.9v-7.2Z"/>
      <path class="st0" d="M296.7,322.6c-.3.2-1,.3-1.9.3-2,0-3.5-1.3-3.5-3.6s1.5-3.8,3.7-3.8,1.5.2,1.7.3l-.2.8c-.4-.2-.9-.3-1.4-.3-1.7,0-2.8,1.1-2.8,3s1,2.9,2.8,2.9,1.1-.1,1.5-.3l.2.7Z"/>
      <path class="st0" d="M307,319.1c0,2.5-1.5,3.8-3.3,3.8s-3.2-1.5-3.2-3.6,1.4-3.8,3.3-3.8,3.2,1.5,3.2,3.6ZM301.4,319.3c0,1.5.8,2.9,2.3,2.9s2.3-1.4,2.3-3-.7-2.9-2.3-2.9-2.3,1.4-2.3,3Z"/>
      <path class="st0" d="M317.4,319.7c0-1-.1-2.2-.1-3.1h0c-.2.8-.5,1.7-.9,2.7l-1.3,3.5h-.7l-1.2-3.4c-.3-1-.6-1.9-.8-2.8h0c0,.9,0,2.1-.1,3.2l-.2,3.1h-.9l.5-7.2h1.2l1.2,3.5c.3.9.5,1.7.7,2.4h0c.2-.7.4-1.5.8-2.4l1.3-3.5h1.2l.4,7.2h-.9l-.2-3.2Z"/>
      <path class="st0" d="M323.1,315.7c.4,0,1-.1,1.8-.1s1.6.2,2,.6c.4.3.6.9.6,1.5s-.2,1.2-.6,1.5c-.5.5-1.3.8-2.2.8s-.5,0-.7,0v2.9h-.9v-7.1ZM324,319.2c.2,0,.5,0,.8,0,1.1,0,1.8-.5,1.8-1.5s-.7-1.4-1.7-1.4-.7,0-.9,0v2.8Z"/>
      <path class="st0" d="M332.2,320.6l-.7,2.3h-1l2.4-7.2h1.1l2.5,7.2h-1l-.8-2.3h-2.5ZM334.6,319.8l-.7-2.1c-.2-.5-.3-.9-.4-1.3h0c-.1.4-.2.9-.4,1.3l-.7,2.1h2.2Z"/>
      <path class="st0" d="M340.8,322.8v-7.2h1l2.3,3.6c.5.8.9,1.6,1.3,2.3h0c0-1-.1-1.8-.1-3v-3h.9v7.2h-.9l-2.3-3.6c-.5-.8-1-1.6-1.3-2.4h0c0,.9,0,1.8,0,3v3.1h-.9Z"/>
      <path class="st0" d="M351.9,315.6v7.2h-.9v-7.2h.9Z"/>
      <path class="st0" d="M360.4,319.4h-2.8v2.6h3.1v.8h-4v-7.2h3.9v.8h-3v2.3h2.8v.8Z"/>
      <path class="st0" d="M365,321.7c.4.3,1,.5,1.7.5.9,0,1.5-.5,1.5-1.2s-.4-1.1-1.4-1.4c-1.2-.4-1.9-1-1.9-2s.9-1.9,2.3-1.9,1.3.2,1.6.4l-.3.8c-.2-.1-.7-.3-1.4-.3-1,0-1.4.6-1.4,1.1s.4,1,1.4,1.4c1.2.5,1.8,1.1,1.8,2.1s-.8,2.1-2.5,2.1-1.4-.2-1.8-.5l.2-.8Z"/>
    </g>
  </g>
</svg>